<?xml version="1.0" standalone="no"?>
<!DOCTYPE svg PUBLIC "-//W3C//DTD SVG 20010904//EN"
 "http://www.w3.org/TR/2001/REC-SVG-20010904/DTD/svg10.dtd">
<svg version="1.0" xmlns="http://www.w3.org/2000/svg"
 width="552.000000pt" height="552.000000pt" viewBox="0 0 552.000000 552.000000"
 preserveAspectRatio="xMidYMid meet">
<metadata>
Created by potrace 1.11, written by Peter Selinger 2001-2013
</metadata>
<g transform="translate(0.000000,552.000000) scale(0.100000,-0.100000)"
fill="#000000" stroke="none">
<path d="M2626 5455 c-101 -41 -135 -84 -246 -310 -410 -835 -590 -1195 -598
-1195 -5 0 -349 -49 -765 -109 -832 -121 -828 -120 -901 -201 -67 -74 -81
-113 -81 -225 0 -92 2 -104 29 -152 21 -39 148 -168 478 -490 247 -241 497
-483 555 -538 l105 -100 -132 -765 c-103 -598 -130 -776 -125 -815 12 -104 85
-203 187 -256 35 -19 59 -23 133 -24 80 0 96 3 145 29 30 15 341 178 691 362
349 184 641 334 649 334 7 0 311 -156 674 -347 364 -191 684 -356 711 -365
186 -64 396 69 420 267 5 39 -23 220 -125 815 l-132 765 110 105 c370 351 988
962 1013 999 40 61 52 113 47 197 -5 80 -29 139 -83 202 -48 55 -123 89 -242
107 -161 25 -1413 205 -1424 205 -9 0 -220 421 -599 1195 -83 168 -106 208
-147 246 -94 88 -229 113 -347 64z"/>
</g>
</svg>
